<?xml version="1.0" encoding="UTF-8" standalone="no"?>
<!-- Created with Inkscape (http://www.inkscape.org/) -->

<svg
   width="35.999817mm"
   height="36.003006mm"
   viewBox="0 0 35.999817 36.003006"
   version="1.1"
   id="svg1415"
   xmlns:inkscape="http://www.inkscape.org/namespaces/inkscape"
   xmlns:sodipodi="http://sodipodi.sourceforge.net/DTD/sodipodi-0.dtd"
   xmlns="http://www.w3.org/2000/svg"
   xmlns:svg="http://www.w3.org/2000/svg">
  <sodipodi:namedview
     id="namedview1417"
     pagecolor="#ffffff"
     bordercolor="#000000"
     borderopacity="0.25"
     inkscape:showpageshadow="2"
     inkscape:pageopacity="0.0"
     inkscape:pagecheckerboard="0"
     inkscape:deskcolor="#d1d1d1"
     inkscape:document-units="mm"
     showgrid="false" />
  <defs
     id="defs1412" />
  <g
     inkscape:label="Layer 1"
     inkscape:groupmode="layer"
     id="layer1"
     transform="translate(-86.982988,-130.66784)">
    <g
       id="g426"
       transform="matrix(0.35277777,0,0,-0.35277777,-45.490105,396.99614)"
       inkscape:export-filename="icon.svg"
       inkscape:export-xdpi="105.82451"
       inkscape:export-ydpi="105.82451">
      <path
         d="m 426.5376,750.3032 c -25.5977,0 -46.4238,-20.8258 -46.4238,-46.4241 0,-24.0877 18.4371,-43.9464 41.9454,-46.2067 0,3.0316 0,26.4024 0,29.6535 l -10.7501,10.4474 v 14.3529 c 1.8504,0.5358 3.2091,2.2422 3.2091,4.263 0,5.8692 -8.8815,5.8692 -8.8815,0 0,-2.0208 1.3583,-3.7272 3.2093,-4.263 v -7.2607 l -4.5535,3.4441 v 12.4022 c 4.8682,1.4652 3.8106,8.6933 -1.2768,8.6933 -5.1295,0 -6.15,-7.3364 -1.1865,-8.7163 v -13.6043 l 7.0168,-5.307 v -5.0454 l 2.2581,-2.1946 h -6.6226 l -7.0477,6.8406 c 1.9437,2.9429 -0.1795,6.8808 -3.7061,6.8808 -7.1172,0 -4.8441,-11.5013 1.823,-8.4855 l 7.9319,-7.6992 h 10.1557 l 5.9579,-5.7895 c 0,-3.0407 0,-23.1562 0,-25.8162 -20.8945,3.3244 -37.0188,21.4823 -37.0188,43.4106 0,24.2402 19.7203,43.9605 43.9602,43.9605 24.2397,0 43.96,-19.7203 43.96,-43.9605 0,-22.5009 -16.9923,-41.1109 -38.8358,-43.6601 v 2.7547 c 20.2799,2.5263 36.099,19.8726 36.099,40.9054 0,22.7307 -18.493,41.2234 -41.2232,41.2234 -22.7301,0 -41.2231,-18.4927 -41.2231,-41.2234 0,-19.4961 13.6046,-35.8739 31.8186,-40.1389 v 2.2507 c -16.9959,4.2208 -29.6311,19.6056 -29.6311,37.8882 0,21.5246 17.5113,39.0362 39.0356,39.0362 21.5241,0 39.0362,-17.5116 39.0362,-39.0362 0,-19.8071 -14.8223,-36.1854 -33.912,-38.6992 0,8.731 0,15.897 0,20.0968 l 0.6574,0.4964 h 7.3377 l 11.53,6.1367 c 2.7785,-2.8222 7.6042,-0.8498 7.6042,3.1122 0,6.525 -10.1645,5.4187 -8.7775,-0.9471 l -10.9712,-5.8385 h -3.4608 l 19.9993,15.0984 v 14.2345 c 4.9053,1.4196 3.8888,8.7041 -1.2317,8.7041 -5.1231,0 -6.1296,-7.2862 -1.2311,-8.7041 v -12.994 L 437.9485,693.123 v 8.4943 l 7.7933,5.6024 v 6.1382 c 4.9042,1.419 3.8869,8.704 -1.2319,8.704 -5.1245,0 -6.1311,-7.2864 -1.2314,-8.704 v -4.8753 l -7.7933,-5.6019 v -11.6172 l -6.2867,-4.7463 c 0,-3.2854 0,-25.7259 0,-28.984 24.3754,1.3881 43.7627,21.6505 43.7627,46.3459 0,25.5983 -20.8253,46.4241 -46.4236,46.4241 z m -24.6172,-23.6795 v 0 c 0.8178,0.4998 1.8258,0.4142 2.5135,-0.2534 1.0106,-0.9819 0.6951,-3.1334 -1.1829,-3.3602 -2.4619,0 -2.8309,2.632 -1.3306,3.6136 z m -9.6049,-24.2175 v 0 c -1.184,1.2217 -0.4391,3.39 1.4122,3.39 1.1299,0 1.9778,-0.8459 1.9778,-1.9778 0,-1.8453 -2.1586,-2.5979 -3.39,-1.4122 z m 15.7839,13.983 v 0 c 0,2.6139 3.9555,2.6139 3.9555,0 0,-2.6135 -3.9555,-2.6135 -3.9555,0 z M 454.3492,697 v 0 c 1.129,0 1.9789,-0.8462 1.9789,-1.978 0,-1.1311 -0.8484,-1.9781 -1.9789,-1.9781 -1.1276,0 -1.9772,0.8465 -1.9772,1.9781 0,1.131 0.8473,1.978 1.9772,1.978 z m 0,26.793 v 0 c 2.6427,0 2.6427,-3.9208 0,-3.9208 -2.641,0 -2.641,3.9208 0,3.9208 z m -9.8393,-4.1944 v 0 c 2.6138,0 2.6138,-3.9552 0,-3.9552 -2.6133,0 -2.6133,3.9552 0,3.9552"
         style="fill:#a52e84;fill-opacity:1;fill-rule:nonzero;stroke:none"
         id="path428" />
      <path
         d="m 426.5376,754.9464 c -28.1347,0 -51.0233,-22.889 -51.0233,-51.0239 0,-31.0295 27.6715,-55.0934 58.6108,-50.4584 24.5495,3.6754 43.4359,24.9018 43.4359,50.4584 0,28.1349 -22.8881,51.0239 -51.0234,51.0239 z m 0.2793,-99.8139 v 0 c 0,5.5735 0,37.8088 0,42.5449 l 6.2073,5.925 v 18.6511 l 6.0091,6.5583 c 6.6648,-2.8199 8.756,8.5328 1.7252,8.5328 -3.5799,0 -5.6906,-4.0436 -3.6405,-6.9769 l -6.5563,-7.1558 v -18.5558 l -6.2082,-5.9244 v -1.7343 l -4.3268,4.1114 v 9.5706 l 0.0752,-0.0921 7.946,6.5129 v 13.9685 c 4.5006,1.84 3.1683,8.5504 -1.6747,8.5504 -2.448,0 -4.4402,-1.9919 -4.4402,-4.4407 0,-2.179 1.5789,-3.9929 3.6525,-4.3665 v -12.5461 l -5.5588,-4.5556 v 9.0819 c 1.6779,0.6356 2.8758,2.2539 2.8758,4.1511 0,5.8685 -8.8821,5.8685 -8.8821,0 0,-2.1416 1.5231,-3.9331 3.5436,-4.3498 V 700.052 l 6.7895,-6.4525 c 0,-4.1136 0,-34.4695 0,-38.4202 -25.88,1.1461 -46.6103,22.5573 -46.6103,48.7432 0,26.9053 21.8891,48.7944 48.7944,48.7944 26.9051,0 48.7948,-21.8891 48.7948,-48.7944 0,-26.8005 -21.7298,-48.6426 -48.5155,-48.79 z m 13.9416,79.7494 v 0 c 3.2479,0 2.0965,-5.197 -0.8626,-3.7494 l -0.8271,0.7574 c -0.8105,1.3473 0.1885,2.992 1.6897,2.992 z m -21.5617,-9.7716 v 0 h -1.4707 c -1.9199,0.773 -1.5723,3.7936 0.7356,3.7928 2.3123,8e-4 2.651,-3.0209 0.7351,-3.7928 z m 7.1764,8.0906 v 0 c -1.0899,0 -1.9774,0.8873 -1.9774,1.9775 0,1.0908 0.8875,1.978 1.9774,1.978 1.0908,0 1.9775,-0.8872 1.9775,-1.978 0,-1.0902 -0.8867,-1.9775 -1.9775,-1.9775"
         style="fill:#000000;fill-opacity:1;fill-rule:nonzero;stroke:none"
         id="path430" />
    </g>
  </g>
</svg>
