<?xml version="1.0" encoding="UTF-8" standalone="no"?>
<!-- Created with Inkscape (http://www.inkscape.org/) -->

<svg
   width="140.39661mm"
   height="35.606209mm"
   viewBox="0 0 140.39661 35.606209"
   version="1.1"
   id="svg4025"
   inkscape:export-filename="logo.svg"
   inkscape:export-xdpi="45.790001"
   inkscape:export-ydpi="45.790001"
   xmlns:inkscape="http://www.inkscape.org/namespaces/inkscape"
   xmlns:sodipodi="http://sodipodi.sourceforge.net/DTD/sodipodi-0.dtd"
   xmlns="http://www.w3.org/2000/svg"
   xmlns:svg="http://www.w3.org/2000/svg">
  <sodipodi:namedview
     id="namedview4027"
     pagecolor="#ffffff"
     bordercolor="#000000"
     borderopacity="0.25"
     inkscape:showpageshadow="2"
     inkscape:pageopacity="0.0"
     inkscape:pagecheckerboard="0"
     inkscape:deskcolor="#d1d1d1"
     inkscape:document-units="mm"
     showgrid="false" />
  <defs
     id="defs4022" />
  <g
     inkscape:label="Layer 1"
     inkscape:groupmode="layer"
     id="layer1"
     transform="translate(-14.465198,-6.5800889)">
    <g
       id="g6573"
       transform="matrix(1.3792771,0,0,1.4779294,-59.669735,-41.934144)"
       inkscape:export-filename=".\logo.svg"
       inkscape:export-xdpi="45.790001"
       inkscape:export-ydpi="45.790001"
       style="stroke-width:0.700402">
      <g
         id="g708"
         style="fill:#4d4d4d;stroke-width:0.35921"
         transform="matrix(0.80941032,0,0,-0.58456106,-240.59974,208.00368)">
        <path
           d="m 409.6582,287.2171 0.5507,-12.8126 h 0.0667 l 0.8852,12.8126 h 2.4545 l 0.7512,-12.8126 h 0.0669 l 0.718,12.8126 h 1.9369 l -1.5363,-16.2995 h -2.4378 l -0.701,12.9364 h -0.0669 l -0.9185,-12.9364 h -2.4709 l -1.2192,16.2995 z m 11.9239,-16.2995 h -3.7738 v 16.2995 h 3.7571 v -1.9602 h -1.8366 v -2.3726 h 1.7864 v -1.8777 h -1.7864 v -8.0464 h 1.8533 z m 5.3286,9.4495 c 0.178,-0.0549 0.3396,-0.1306 0.4841,-0.227 0.1449,-0.0961 0.2699,-0.2441 0.3759,-0.4436 0.1057,-0.1993 0.1862,-0.4573 0.2421,-0.7736 0.0555,-0.3163 0.0833,-0.722 0.0833,-1.2175 v -3.4455 c 0,-0.7291 -0.0363,-1.3136 -0.1085,-1.7538 -0.0723,-0.4399 -0.2115,-0.777 -0.4173,-1.0108 -0.2061,-0.2339 -0.487,-0.3887 -0.8433,-0.4643 -0.356,-0.0757 -0.8181,-0.1134 -1.3859,-0.1134 h -2.7382 v 16.2995 h 2.7382 c 0.5678,0 1.0299,-0.0377 1.3859,-0.1134 0.3563,-0.0757 0.6372,-0.2308 0.8433,-0.4643 0.2058,-0.2339 0.345,-0.5675 0.4173,-1.0007 0.0722,-0.4334 0.1085,-1.0145 0.1085,-1.7436 v -1.2171 c 0,-0.4264 -0.0416,-0.7773 -0.1253,-1.0523 -0.0833,-0.2752 -0.1834,-0.4952 -0.3004,-0.6602 -0.1168,-0.1649 -0.245,-0.2888 -0.3841,-0.3716 -0.1389,-0.0822 -0.2642,-0.1304 -0.3756,-0.1443 z m -2.3876,-7.4069 h 0.818 c 0.1783,0 0.3201,0.017 0.4258,0.0516 0.1057,0.0343 0.1865,0.0961 0.2421,0.1857 0.0558,0.0893 0.0947,0.2199 0.117,0.392 0.0222,0.1718 0.0335,0.3954 0.0335,0.6704 v 3.9821 c 0,0.4538 -0.0448,0.7668 -0.1338,0.9389 -0.089,0.1717 -0.3005,0.2576 -0.6344,0.2576 h -0.8682 z m 0,8.356 h 0.8682 c 0.3115,0 0.5176,0.0757 0.6177,0.227 0.1003,0.1514 0.1505,0.4264 0.1505,0.8252 v 1.5267 c 0,0.2478 -0.008,0.4539 -0.0252,0.6191 -0.0168,0.165 -0.0528,0.2957 -0.1086,0.3921 -0.0556,0.0961 -0.1392,0.1615 -0.2503,0.1958 -0.1114,0.0343 -0.256,0.0516 -0.4343,0.0516 h -0.818 z m 8.1337,0.6188 v 2.0222 c 0,0.2889 -0.008,0.5227 -0.025,0.7016 -0.0167,0.1786 -0.053,0.3127 -0.1085,0.4022 -0.0559,0.0893 -0.1392,0.1511 -0.2506,0.1857 -0.1111,0.0343 -0.256,0.0516 -0.4343,0.0516 -0.189,0 -0.3364,-0.0173 -0.4422,-0.0516 -0.1057,-0.0346 -0.1865,-0.0964 -0.2421,-0.1857 -0.0558,-0.0895 -0.0918,-0.2236 -0.1085,-0.4022 -0.0167,-0.1789 -0.0253,-0.4127 -0.0253,-0.7016 v -1.6092 c 0,-0.3302 0.0281,-0.5743 0.0837,-0.7328 0.0558,-0.1581 0.1947,-0.3197 0.4175,-0.4847 0.1891,-0.1514 0.4425,-0.3231 0.7597,-0.5159 0.3172,-0.1925 0.665,-0.4331 1.0434,-0.722 0.2784,-0.2202 0.5037,-0.4195 0.6764,-0.5984 0.1723,-0.1788 0.3004,-0.3781 0.3841,-0.5984 0.0833,-0.2199 0.1389,-0.4813 0.1669,-0.7837 0.0278,-0.3028 0.0417,-0.6812 0.0417,-1.135 v -2.6204 c 0,-0.7563 -0.0363,-1.3617 -0.1086,-1.8156 -0.0722,-0.4538 -0.2086,-0.8013 -0.409,-1.042 -0.2004,-0.2406 -0.4788,-0.3988 -0.8348,-0.4745 -0.3563,-0.0757 -0.8181,-0.1134 -1.3859,-0.1134 -0.5454,0 -0.9907,0.0377 -1.3359,0.1134 -0.345,0.0757 -0.6177,0.2305 -0.8181,0.4643 -0.2004,0.2339 -0.3393,0.5777 -0.4173,1.0315 -0.0779,0.4539 -0.117,1.0662 -0.117,1.8363 v 3.2395 h 1.8703 v -3.2395 c 0,-0.2888 0.008,-0.5193 0.0249,-0.6911 0.0167,-0.1717 0.0527,-0.3061 0.1086,-0.4025 0.0555,-0.0961 0.1363,-0.1613 0.242,-0.1959 0.1058,-0.0343 0.2475,-0.0515 0.4255,-0.0515 0.3566,0 0.5817,0.0824 0.6767,0.2474 0.0943,0.1653 0.1417,0.5298 0.1417,1.0936 v 2.4554 c 0,0.4402 -0.0221,0.7566 -0.0666,0.949 -0.0448,0.1925 -0.1727,0.3782 -0.3841,0.557 -0.1114,0.0964 -0.2506,0.203 -0.4176,0.3198 -0.1669,0.1171 -0.3449,0.2407 -0.5343,0.3716 -0.1893,0.1304 -0.3813,0.2648 -0.576,0.4022 -0.1947,0.1375 -0.3702,0.2682 -0.5258,0.3921 -0.2339,0.1925 -0.4204,0.3747 -0.5593,0.5468 -0.1392,0.1718 -0.2452,0.3611 -0.3175,0.5672 -0.0723,0.2064 -0.1196,0.4402 -0.1417,0.7016 -0.0224,0.2613 -0.0335,0.5845 -0.0335,0.9697 v 1.5681 c 0,0.7563 0.036,1.3615 0.1086,1.8156 0.0723,0.4538 0.2058,0.8045 0.4005,1.0522 0.1948,0.2478 0.4678,0.4091 0.8181,0.4848 0.3507,0.0756 0.8099,0.1136 1.3777,0.1136 0.5677,0 1.027,-0.038 1.3776,-0.1136 0.3504,-0.0757 0.6262,-0.237 0.8263,-0.4848 0.2004,-0.2477 0.3368,-0.5984 0.409,-1.0522 0.0726,-0.4541 0.1086,-1.0593 0.1086,-1.8156 v -2.0222 z m 6.8817,-11.0174 h -3.7738 v 16.2995 h 3.757 v -1.9602 h -1.8368 v -2.3726 h 1.7867 v -1.8777 h -1.7867 v -8.0464 h 1.8536 z m 2.9409,0 h -1.9202 v 16.2995 h 2.7383 c 0.5678,0 1.0298,-0.0377 1.3858,-0.1134 0.3564,-0.0757 0.6373,-0.2342 0.8433,-0.4748 0.2058,-0.2407 0.345,-0.5777 0.4173,-1.0109 0.0726,-0.4334 0.1086,-1.0074 0.1086,-1.7229 v -1.7124 c 0,-0.4263 -0.036,-0.7735 -0.1086,-1.042 -0.0723,-0.2681 -0.167,-0.4847 -0.2837,-0.65 -0.1168,-0.1649 -0.245,-0.2851 -0.3841,-0.3608 -0.1392,-0.0757 -0.2756,-0.1341 -0.4091,-0.1755 v -0.0825 c 0.1783,-0.055 0.3396,-0.1272 0.4842,-0.2165 0.1448,-0.0896 0.2701,-0.2271 0.3759,-0.4128 0.1057,-0.1856 0.1862,-0.4229 0.242,-0.7117 0.0556,-0.2889 0.0834,-0.6602 0.0834,-1.1143 v -6.499 h -1.9369 v 6.8703 c 0,0.4402 -0.0445,0.7464 -0.1336,0.9184 -0.089,0.1718 -0.3004,0.2577 -0.6343,0.2577 h -0.8683 z m 0,9.9241 h 0.8683 c 0.3115,0 0.5176,0.0757 0.6176,0.2267 0.1004,0.1514 0.1503,0.4267 0.1503,0.8255 v 2.0012 c 0,0.2614 -0.008,0.4712 -0.025,0.6293 -0.0167,0.1582 -0.053,0.2855 -0.1086,0.3819 -0.0555,0.0961 -0.1389,0.1615 -0.2505,0.1958 -0.1112,0.0343 -0.256,0.0516 -0.434,0.0516 h -0.8181 z m 5.4456,-9.9241 -1.4862,16.2995 h 1.9704 l 0.9184,-13.3492 h 0.0666 l 1.0185,13.3492 h 1.9871 l -1.6699,-16.2995 z m 7.1652,0 H 453.17 v 16.2995 h 1.9202 z m 4.7778,9.3875 v 3.6932 c 0,0.2753 -0.008,0.4986 -0.0253,0.6707 -0.0164,0.1718 -0.0555,0.3025 -0.1167,0.392 -0.0613,0.0893 -0.1449,0.1511 -0.2503,0.1857 -0.1058,0.0343 -0.2421,0.0516 -0.4091,0.0516 -0.1783,0 -0.32,-0.0173 -0.426,-0.0516 -0.1058,-0.0346 -0.1891,-0.0998 -0.2503,-0.1961 -0.0613,-0.0961 -0.1004,-0.2305 -0.1168,-0.4023 -0.017,-0.1718 -0.0252,-0.3886 -0.0252,-0.65 v -9.8416 c 0,-0.2888 0.008,-0.5193 0.0252,-0.6911 0.0164,-0.1717 0.0555,-0.3061 0.1168,-0.4025 0.0612,-0.0961 0.1445,-0.1613 0.2503,-0.1959 0.106,-0.0343 0.2477,-0.0515 0.426,-0.0515 0.167,0 0.3033,0.0172 0.4091,0.0515 0.1054,0.0346 0.189,0.0998 0.2503,0.1959 0.0612,0.0964 0.1003,0.2308 0.1167,0.4025 0.017,0.1718 0.0253,0.4023 0.0253,0.6911 v 3.7758 h 1.8533 v -3.7758 c 0,-0.7701 -0.0363,-1.3824 -0.1086,-1.8363 -0.0723,-0.4538 -0.2086,-0.7976 -0.409,-1.0315 -0.2002,-0.2338 -0.4731,-0.3886 -0.8181,-0.4643 -0.3453,-0.0757 -0.7849,-0.1134 -1.319,-0.1134 -0.5678,0 -1.0298,0.0377 -1.3861,0.1134 -0.3561,0.0757 -0.6344,0.2339 -0.8348,0.4745 -0.2004,0.2407 -0.3368,0.5882 -0.4091,1.042 -0.0723,0.4539 -0.1085,1.0593 -0.1085,1.8156 v 9.8416 c 0,0.7427 0.0391,1.3411 0.117,1.7949 0.078,0.4541 0.2197,0.8014 0.4258,1.042 0.2058,0.241 0.487,0.3989 0.843,0.4746 0.3563,0.0756 0.807,0.1136 1.3527,0.1136 0.5341,0 0.9737,-0.038 1.319,-0.1136 0.345,-0.0757 0.6179,-0.2336 0.8181,-0.4746 0.2004,-0.2406 0.3367,-0.5845 0.409,-1.0315 0.0723,-0.447 0.1086,-1.0488 0.1086,-1.8054 v -3.6932 z m 6.8479,-9.3875 h -3.7735 v 16.2995 h 3.7571 v -1.9602 h -1.8369 v -2.3726 h 1.7867 v -1.8777 h -1.7867 v -8.0464 h 1.8533 z m 4.4104,11.0174 v 2.0222 c 0,0.2889 -0.008,0.5227 -0.0249,0.7016 -0.0167,0.1786 -0.053,0.3127 -0.1086,0.4022 -0.0558,0.0893 -0.1392,0.1511 -0.2506,0.1857 -0.1111,0.0343 -0.2559,0.0516 -0.4342,0.0516 -0.1891,0 -0.3365,-0.0173 -0.4422,-0.0516 -0.1061,-0.0346 -0.1866,-0.0964 -0.2421,-0.1857 -0.0559,-0.0895 -0.0919,-0.2236 -0.1089,-0.4022 -0.0164,-0.1789 -0.0249,-0.4127 -0.0249,-0.7016 v -1.6092 c 0,-0.3302 0.0278,-0.5743 0.0836,-0.7328 0.0559,-0.1581 0.1948,-0.3197 0.4173,-0.4847 0.1893,-0.1514 0.4427,-0.3231 0.7599,-0.5159 0.3172,-0.1925 0.665,-0.4331 1.0435,-0.722 0.2783,-0.2202 0.5037,-0.4195 0.6763,-0.5984 0.1724,-0.1788 0.3005,-0.3781 0.3838,-0.5984 0.0837,-0.2199 0.1392,-0.4813 0.1673,-0.7837 0.0278,-0.3028 0.0416,-0.6812 0.0416,-1.135 v -2.6204 c 0,-0.7563 -0.0362,-1.3617 -0.1085,-1.8156 -0.0723,-0.4538 -0.2087,-0.8013 -0.4091,-1.042 -0.2004,-0.2406 -0.4787,-0.3988 -0.835,-0.4745 -0.3561,-0.0757 -0.8181,-0.1134 -1.3856,-0.1134 -0.5454,0 -0.9907,0.0377 -1.336,0.1134 -0.345,0.0757 -0.6177,0.2305 -0.8181,0.4643 -0.2004,0.2339 -0.3393,0.5777 -0.4172,1.0315 -0.078,0.4539 -0.1171,1.0662 -0.1171,1.8363 v 3.2395 h 1.87 v -3.2395 c 0,-0.2888 0.008,-0.5193 0.0252,-0.6911 0.0168,-0.1717 0.0528,-0.3061 0.1086,-0.4025 0.0556,-0.0961 0.1364,-0.1613 0.2421,-0.1959 0.1054,-0.0343 0.2475,-0.0515 0.4255,-0.0515 0.3563,0 0.5816,0.0824 0.6763,0.2474 0.0947,0.1653 0.142,0.5298 0.142,1.0936 v 2.4554 c 0,0.4402 -0.0221,0.7566 -0.0669,0.949 -0.0445,0.1925 -0.1723,0.3782 -0.3838,0.557 -0.1114,0.0964 -0.2506,0.203 -0.4175,0.3198 -0.167,0.1171 -0.3453,0.2407 -0.5344,0.3716 -0.1893,0.1304 -0.3812,0.2648 -0.576,0.4022 -0.195,0.1375 -0.3702,0.2682 -0.5261,0.3921 -0.2335,0.1925 -0.4201,0.3747 -0.5592,0.5468 -0.1392,0.1718 -0.245,0.3611 -0.3172,0.5672 -0.0723,0.2064 -0.1197,0.4402 -0.1421,0.7016 -0.0221,0.2613 -0.0334,0.5845 -0.0334,0.9697 v 1.5681 c 0,0.7563 0.0363,1.3615 0.1089,1.8156 0.0722,0.4538 0.2057,0.8045 0.4005,1.0522 0.1947,0.2478 0.4674,0.4091 0.8181,0.4848 0.3506,0.0756 0.8098,0.1136 1.3776,0.1136 0.5678,0 1.0267,-0.038 1.3776,-0.1136 0.3504,-0.0757 0.6259,-0.237 0.8263,-0.4848 0.2004,-0.2477 0.3368,-0.5984 0.4091,-1.0522 0.0723,-0.4541 0.1085,-1.0593 0.1085,-1.8156 v -2.0222 z"
           style="fill:#4d4d4d;fill-opacity:1;fill-rule:nonzero;stroke:none;stroke-width:0.35921"
           id="path710" />
        <path
           d="m 475.9875,270.9176 h -1.7533 v 2.7232 h 1.7533 z m 3.2581,0 h -1.9202 v 16.2995 h 2.7386 c 0.5677,0 1.0295,-0.0377 1.3858,-0.1134 0.3561,-0.0757 0.6373,-0.2342 0.8431,-0.4748 0.206,-0.2407 0.3452,-0.5777 0.4175,-1.0109 0.0723,-0.4334 0.1086,-1.0074 0.1086,-1.7229 v -1.7124 c 0,-0.4263 -0.0363,-0.7735 -0.1086,-1.042 -0.0723,-0.2681 -0.167,-0.4847 -0.2838,-0.65 -0.117,-0.1649 -0.2449,-0.2851 -0.384,-0.3608 -0.1392,-0.0757 -0.2756,-0.1341 -0.4091,-0.1755 v -0.0825 c 0.178,-0.055 0.3393,-0.1272 0.4842,-0.2165 0.1448,-0.0896 0.2698,-0.2271 0.3756,-0.4128 0.1057,-0.1856 0.1865,-0.4229 0.2423,-0.7117 0.0556,-0.2889 0.0834,-0.6602 0.0834,-1.1143 v -6.499 h -1.937 v 6.8703 c 0,0.4402 -0.0445,0.7464 -0.1337,0.9184 -0.0891,0.1718 -0.3005,0.2577 -0.6342,0.2577 h -0.8685 z m 0,9.9241 h 0.8685 c 0.3116,0 0.5176,0.0757 0.6177,0.2267 0.1001,0.1514 0.1502,0.4267 0.1502,0.8255 v 2.0012 c 0,0.2614 -0.008,0.4712 -0.0249,0.6293 -0.0167,0.1582 -0.053,0.2855 -0.1088,0.3819 -0.0553,0.0961 -0.1389,0.1615 -0.2503,0.1958 -0.1112,0.0343 -0.256,0.0516 -0.434,0.0516 h -0.8184 z m 10.171,-6.685 c 0,-0.7563 -0.0363,-1.3617 -0.1086,-1.8156 -0.0723,-0.4538 -0.2114,-0.8013 -0.4175,-1.042 -0.2058,-0.2406 -0.487,-0.3988 -0.843,-0.4745 -0.3564,-0.0757 -0.8181,-0.1134 -1.3859,-0.1134 -0.5678,0 -1.0295,0.0377 -1.3859,0.1134 -0.3563,0.0757 -0.6343,0.2339 -0.8348,0.4745 -0.2004,0.2407 -0.3367,0.5882 -0.409,1.042 -0.0726,0.4539 -0.1086,1.0593 -0.1086,1.8156 v 9.8416 c 0,0.7566 0.036,1.3584 0.1086,1.8054 0.0723,0.447 0.2086,0.7909 0.409,1.0315 0.2005,0.241 0.4785,0.3989 0.8348,0.4746 0.3564,0.0756 0.8181,0.1136 1.3859,0.1136 0.5678,0 1.0295,-0.038 1.3859,-0.1136 0.356,-0.0757 0.6372,-0.2336 0.843,-0.4746 0.2061,-0.2406 0.3452,-0.5845 0.4175,-1.0315 0.0723,-0.447 0.1086,-1.0488 0.1086,-1.8054 z m -1.9369,9.8416 c 0,0.2753 -0.008,0.4986 -0.025,0.6707 -0.0167,0.1718 -0.0558,0.3025 -0.117,0.392 -0.0613,0.0893 -0.1446,0.1511 -0.2503,0.1857 -0.1058,0.0343 -0.2421,0.0516 -0.4091,0.0516 -0.3563,0 -0.5845,-0.0828 -0.6845,-0.2477 -0.1004,-0.165 -0.1506,-0.5157 -0.1506,-1.0523 v -9.8416 c 0,-0.2888 0.008,-0.5193 0.0253,-0.6911 0.0167,-0.1717 0.0555,-0.3061 0.1168,-0.4025 0.0612,-0.0961 0.1448,-0.1613 0.2505,-0.1959 0.1058,-0.0343 0.2421,-0.0515 0.4091,-0.0515 0.178,0 0.3228,0.0172 0.434,0.0515 0.1114,0.0346 0.1975,0.1032 0.2588,0.2064 0.0612,0.1032 0.1003,0.2407 0.117,0.4127 0.0168,0.1718 0.025,0.3955 0.025,0.6704 z"
           style="fill:#4d4d4d;fill-opacity:1;fill-rule:nonzero;stroke:none;stroke-width:0.35921"
           id="path712" />
      </g>
      <g
         id="g714"
         style="fill:#280b0b;stroke-width:0.35921"
         transform="matrix(0.80941032,0,0,-0.58456106,-240.59974,208.00368)">
        <path
           d="m 384.2634,297.7991 c -10.3374,0 -18.7475,-8.4101 -18.7475,-18.7475 0,-9.7277 7.4455,-17.7472 16.939,-18.6602 0,1.2246 0,10.6622 0,11.9752 l -4.3412,4.2191 v 5.7963 c 0.7472,0.2163 1.296,0.9054 1.296,1.7215 0,2.3703 -3.5867,2.3703 -3.5867,0 0,-0.8161 0.5485,-1.5052 1.296,-1.7215 v -2.9321 l -1.8388,1.3909 v 5.0083 c 1.9658,0.5918 1.5386,3.5107 -0.5157,3.5107 -2.0715,0 -2.4837,-2.9628 -0.4793,-3.5198 v -5.4941 l 2.8338,-2.143 v -2.0375 l 0.9119,-0.8864 h -2.6745 l -2.8463,2.7626 c 0.785,1.1883 -0.0722,2.7785 -1.4964,2.7785 -2.8743,0 -1.9564,-4.6445 0.7359,-3.4268 l 3.2034,-3.109 h 4.1012 l 2.4061,-2.338 c 0,-1.228 0,-9.3515 0,-10.4256 -8.4379,1.3425 -14.9497,8.6755 -14.9497,17.5309 0,9.7889 7.964,17.7528 17.7528,17.7528 9.7889,0 17.7526,-7.9639 17.7526,-17.7528 0,-9.0867 -6.8619,-16.6022 -15.6833,-17.6315 v 1.1123 c 8.1899,1.0202 14.578,8.0255 14.578,16.5192 0,9.1794 -7.4681,16.6476 -16.6473,16.6476 -9.1791,0 -16.6473,-7.4682 -16.6473,-16.6476 0,-7.8732 5.4939,-14.4873 12.8495,-16.2096 v 0.9087 c -6.8636,1.7045 -11.9662,7.9178 -11.9662,15.3009 0,8.6921 7.0719,15.764 15.764,15.764 8.6922,0 15.7643,-7.0719 15.7643,-15.764 0,-7.9991 -5.9859,-14.6132 -13.695,-15.6283 0,3.5261 0,6.4199 0,8.1159 l 0.2653,0.2004 h 2.9634 l 4.6565,2.4784 c 1.1219,-1.1399 3.0707,-0.3433 3.0707,1.2566 0,2.635 -4.1048,2.1883 -3.5447,-0.3824 l -4.4305,-2.3579 h -1.3975 l 8.0762,6.0973 v 5.7484 c 1.9811,0.5734 1.5706,3.5152 -0.4975,3.5152 -2.0687,0 -2.4752,-2.9426 -0.4969,-3.5152 v -5.2472 l -6.1263,-4.625 v 3.4302 l 3.1473,2.2626 v 2.4786 c 1.9806,0.5732 1.5696,3.5153 -0.4974,3.5153 -2.0693,0 -2.4758,-2.9427 -0.4972,-3.5153 v -1.9686 l -3.1473,-2.2624 v -4.6913 l -2.5388,-1.9168 c 0,-1.3269 0,-10.389 0,-11.7048 9.8436,0.5607 17.6729,8.7434 17.6729,18.7163 0,10.3374 -8.4101,18.7475 -18.7475,18.7475 z m -9.9414,-9.5624 v 0 c 0.3303,0.2018 0.7373,0.1672 1.0151,-0.1023 0.4082,-0.3966 0.2807,-1.2654 -0.4776,-1.357 -0.9944,0 -1.1432,1.0627 -0.5375,1.4593 z m -3.8786,-9.7801 v 0 c -0.4782,0.4935 -0.1774,1.3691 0.5703,1.3691 0.4561,0 0.7986,-0.3415 0.7986,-0.7988 0,-0.7452 -0.8717,-1.0491 -1.3689,-0.5703 z m 6.374,5.6469 v 0 c 0,1.0556 1.5973,1.0556 1.5973,0 0,-1.0553 -1.5973,-1.0553 -1.5973,0 z m 18.6772,-7.8301 v 0 c 0.4561,0 0.7994,-0.3416 0.7994,-0.7988 0,-0.4567 -0.3428,-0.7986 -0.7994,-0.7986 -0.4553,0 -0.7983,0.3416 -0.7983,0.7986 0,0.4569 0.3422,0.7988 0.7983,0.7988 z m 0,10.8201 v 0 c 1.0672,0 1.0672,-1.5835 0,-1.5835 -1.0664,0 -1.0664,1.5835 0,1.5835 z m -3.9733,-1.694 v 0 c 1.0556,0 1.0556,-1.597 0,-1.597 -1.0554,0 -1.0554,1.597 0,1.597"
           style="fill:#280b0b;fill-opacity:1;fill-rule:nonzero;stroke:none;stroke-width:0.35921"
           id="path716" />
        <path
           d="m 384.2634,299.6742 c -11.3618,0 -20.605,-9.2432 -20.605,-20.605 0,-12.5309 11.1747,-22.2489 23.669,-20.3772 9.9142,1.4843 17.5411,10.0562 17.5411,20.3772 0,11.3618 -9.243,20.605 -20.6051,20.605 z m 0.1129,-40.3084 v 0 c 0,2.2507 0,15.2686 0,17.1811 l 2.5066,2.393 v 7.5319 l 2.4268,2.6485 c 2.6915,-1.139 3.5359,3.4457 0.6967,3.4457 -1.4456,0 -2.298,-1.633 -1.4703,-2.8176 l -2.6476,-2.8896 v -7.4934 l -2.5069,-2.3927 v -0.7002 l -1.7476,1.6603 v 3.865 l 0.0303,-0.0371 3.2091,2.6299 v 5.641 c 1.8173,0.7432 1.2796,3.4532 -0.6763,3.4532 -0.9887,0 -1.7932,-0.8045 -1.7932,-1.7935 0,-0.8799 0.6375,-1.6124 1.4752,-1.7635 v -5.0663 l -2.2451,-1.84 v 3.6678 c 0.6778,0.2565 1.1614,0.9102 1.1614,1.6764 0,2.3697 -3.587,2.3697 -3.587,0 0,-0.8649 0.6151,-1.5883 1.4312,-1.7567 v -9.1031 l 2.742,-2.6056 c 0,-1.6612 0,-13.9201 0,-15.5155 -10.4514,0.4629 -18.8232,9.1094 -18.8232,19.6844 0,10.8652 8.8396,19.7047 19.705,19.7047 10.8652,0 19.7051,-8.8395 19.7051,-19.7047 0,-10.8233 -8.7752,-19.6438 -19.5922,-19.7034 z m 5.6301,32.2056 v 0 c 1.3116,0 0.8465,-2.0985 -0.3484,-1.514 l -0.3342,0.3058 c -0.3271,0.5443 0.0763,1.2082 0.6826,1.2082 z m -8.7074,-3.9459 v 0 h -0.5939 c -0.7756,0.3121 -0.635,1.5319 0.2971,1.5316 0.9337,3e-4 1.0706,-1.22 0.2968,-1.5316 z m 2.8981,3.2673 v 0 c -0.4402,0 -0.7985,0.3583 -0.7985,0.7985 0,0.4405 0.3583,0.7988 0.7985,0.7988 0.4405,0 0.7985,-0.3583 0.7985,-0.7988 0,-0.4402 -0.358,-0.7985 -0.7985,-0.7985"
           style="fill:#280b0b;fill-opacity:1;fill-rule:nonzero;stroke:none;stroke-width:0.35921"
           id="path718" />
      </g>
    </g>
  </g>
</svg>
